<?xml version="1.0" encoding="UTF-8"?>
<svg xmlns="http://www.w3.org/2000/svg" id="Layer_1" data-name="Layer 1" viewBox="0 0 24 24">
  <path d="m23.795,20.87l-2.508-5.528c-.343-.755-1.043-1.253-1.873-1.331-.829-.073-1.613.279-2.093.96l-1.754,2.485-10.261-6.23,1.162-3.252c.143-.401.454-.722.852-.882.166-.072.355-.11.552-.11.231,0,.462.055.67.159l.778.342c.847.419,1.455,1.102,1.761,1.943l1.449,4.092c.093.261.38.397.641.302.257-.094.391-.377.3-.635l-1.455-4.108c-.39-1.075-1.174-1.953-2.204-2.467l-.779-.342c-.683-.337-1.427-.367-2.086-.101-.66.265-1.176.801-1.416,1.471l-1.093,3.06-2.677-1.625c-.234-.141-.543-.068-.688.168-.143.236-.067.544.168.688l13.749,8.347-1.57,2.224c-.491.695-.553,1.596-.162,2.351.396.762,1.176,1.235,2.038,1.235h6.411c.785,0,1.507-.393,1.93-1.05.42-.651.479-1.46.159-2.165Zm-.999,1.623c-.239.371-.646.592-1.09.592h-6.411c-.494,0-.924-.26-1.149-.695-.223-.429-.188-.92.09-1.314l3.902-5.528c.246-.348.633-.547,1.055-.547.519,0,.991.331,1.185.756l2.508,5.528c.181.399.148.84-.089,1.209Zm-12.796-4.993v6c0,.276-.224.5-.5.5s-.5-.224-.5-.5v-6c0-.276.224-.5.5-.5s.5.224.5.5Zm-5.529-2.833l-3.195,9c-.072.205-.265.333-.471.333-.056,0-.112-.009-.167-.029-.261-.092-.396-.378-.304-.638l3.195-9c.092-.261.382-.399.638-.304.261.092.396.378.304.638Zm7.029-9.667c1.379,0,2.5-1.121,2.5-2.5s-1.121-2.5-2.5-2.5-2.5,1.121-2.5,2.5,1.121,2.5,2.5,2.5Zm0-4c.827,0,1.5.673,1.5,1.5s-.673,1.5-1.5,1.5-1.5-.673-1.5-1.5.673-1.5,1.5-1.5Z"/>
</svg>
